<svg width="22.000000" height="32.000000" viewBox="0 0 22 32" fill="none" xmlns="http://www.w3.org/2000/svg" xmlns:xlink="http://www.w3.org/1999/xlink">
	<desc>
			Created with Pixso.
	</desc>
	<defs/>
	<path d="M1 10.8804C1 17.1548 7.66699 27.0977 10.1143 30.5322C10.2158 30.6768 10.3496 30.7949 10.5029 30.8765C10.6572 30.9575 10.8271 31 11 31C11.1729 31 11.3428 30.9575 11.4971 30.8765C11.6504 30.7949 11.7842 30.6768 11.8857 30.5322C14.333 27.0991 21 17.1597 21 10.8804C21 5.42725 16.5205 1 11 1C5.47949 1 1 5.42725 1 10.8804Z" stroke="#40DDB6" stroke-opacity="1.000000" stroke-width="2.000000" stroke-linejoin="round"/>
	<path d="M11 16C8.79102 16 7 14.209 7 12C7 9.79102 8.79102 8 11 8C13.209 8 15 9.79102 15 12C15 14.209 13.209 16 11 16Z" stroke="#40DDB6" stroke-opacity="1.000000" stroke-width="2.000000" stroke-linejoin="round"/>
</svg>
