<svg width="204.000000" height="43.000000" viewBox="0 0 204 43" fill="none" xmlns="http://www.w3.org/2000/svg" xmlns:xlink="http://www.w3.org/1999/xlink">
	<desc>
			Created with Pixso.
	</desc>
	<defs>
		<filter id="filter_4_5_dd" x="17.000000" y="6.000000" width="33.170898" height="29.786133" filterUnits="userSpaceOnUse" color-interpolation-filters="sRGB">
			<feFlood flood-opacity="0" result="BackgroundImageFix"/>
			<feColorMatrix in="SourceAlpha" type="matrix" values="0 0 0 0 0 0 0 0 0 0 0 0 0 0 0 0 0 0 127 0" result="hardAlpha"/>
			<feOffset dx="0" dy="4"/>
			<feGaussianBlur stdDeviation="1.33333"/>
			<feComposite in2="hardAlpha" operator="out" k2="-1" k3="1"/>
			<feColorMatrix type="matrix" values="0 0 0 0 0 0 0 0 0 0 0 0 0 0 0 0 0 0 0.25 0"/>
			<feBlend mode="normal" in2="BackgroundImageFix" result="effect_dropShadow_1"/>
			<feColorMatrix in="SourceAlpha" type="matrix" values="0 0 0 0 0 0 0 0 0 0 0 0 0 0 0 0 0 0 127 0" result="hardAlpha"/>
			<feOffset dx="0" dy="4"/>
			<feGaussianBlur stdDeviation="1.33333"/>
			<feComposite in2="hardAlpha" operator="out" k2="-1" k3="1"/>
			<feColorMatrix type="matrix" values="0 0 0 0 0 0 0 0 0 0 0 0 0 0 0 0 0 0 0.25 0"/>
			<feBlend mode="normal" in2="effect_dropShadow_1" result="effect_dropShadow_2"/>
			<feBlend mode="normal" in="SourceGraphic" in2="effect_dropShadow_2" result="shape"/>
		</filter>
		<filter id="filter_4_4_dd" x="0.000000" y="6.000000" width="36.200195" height="37.000000" filterUnits="userSpaceOnUse" color-interpolation-filters="sRGB">
			<feFlood flood-opacity="0" result="BackgroundImageFix"/>
			<feColorMatrix in="SourceAlpha" type="matrix" values="0 0 0 0 0 0 0 0 0 0 0 0 0 0 0 0 0 0 127 0" result="hardAlpha"/>
			<feOffset dx="0" dy="4"/>
			<feGaussianBlur stdDeviation="1.33333"/>
			<feComposite in2="hardAlpha" operator="out" k2="-1" k3="1"/>
			<feColorMatrix type="matrix" values="0 0 0 0 0 0 0 0 0 0 0 0 0 0 0 0 0 0 0.25 0"/>
			<feBlend mode="normal" in2="BackgroundImageFix" result="effect_dropShadow_1"/>
			<feColorMatrix in="SourceAlpha" type="matrix" values="0 0 0 0 0 0 0 0 0 0 0 0 0 0 0 0 0 0 127 0" result="hardAlpha"/>
			<feOffset dx="0" dy="4"/>
			<feGaussianBlur stdDeviation="1.33333"/>
			<feComposite in2="hardAlpha" operator="out" k2="-1" k3="1"/>
			<feColorMatrix type="matrix" values="0 0 0 0 0 0 0 0 0 0 0 0 0 0 0 0 0 0 0.25 0"/>
			<feBlend mode="normal" in2="effect_dropShadow_1" result="effect_dropShadow_2"/>
			<feBlend mode="normal" in="SourceGraphic" in2="effect_dropShadow_2" result="shape"/>
		</filter>
	</defs>
	<path d="M166.873 9.50024L166.873 28L162.6 28L162.6 9.50024L166.873 9.50024ZM174.248 9.50024L174.248 28L169.975 28L169.975 9.50024L174.248 9.50024Z" fill="#40DDB6" fill-opacity="1.000000" fill-rule="evenodd"/>
	<path d="M75.7019 10.4524L71.1243 28L65.9485 28L63.147 16.4521L60.2478 28L55.072 28L50.6226 10.4524L55.2002 10.4524L57.7271 23.2271L60.8521 10.4524L65.5518 10.4524L68.5486 23.2271L71.0999 10.4524L75.7019 10.4524ZM86.4257 13.9009Q88.8244 13.9009 90.271 15.4878Q91.7236 17.0747 91.7236 19.8518L91.7236 28L87.4755 28L87.4755 20.4255Q87.4755 19.0278 86.7492 18.2527Q86.0229 17.4775 84.8022 17.4775Q83.5754 17.4775 82.8491 18.2527Q82.1228 19.0278 82.1228 20.4255L82.1228 28L77.8503 28L77.8503 9.50024L82.1228 9.50024L82.1228 15.9272Q82.7758 14.9995 83.8989 14.4502Q85.028 13.9009 86.4257 13.9009ZM96.8487 12.6008Q95.7257 12.6008 95.0116 11.9417Q94.2975 11.2764 94.2975 10.2998Q94.2975 9.29883 95.0116 8.63965Q95.7257 7.97437 96.8487 7.97437Q97.9474 7.97437 98.6615 8.63965Q99.3756 9.29883 99.3756 10.2998Q99.3756 11.2764 98.6615 11.9417Q97.9474 12.6008 96.8487 12.6008ZM98.9728 14.0474L98.9728 28L94.7003 28L94.7003 14.0474L98.9728 14.0474ZM109.851 24.3745L109.851 28L107.672 28Q105.353 28 104.053 26.8647Q102.753 25.7234 102.753 23.1477L102.753 17.5996L101.05 17.5996L101.05 14.0474L102.753 14.0474L102.753 10.6477L107.025 10.6477L107.025 14.0474L109.827 14.0474L109.827 17.5996L107.025 17.5996L107.025 23.2026Q107.025 23.8252 107.324 24.0999Q107.623 24.3745 108.325 24.3745L109.851 24.3745ZM125.372 20.7979Q125.372 21.4021 125.299 22.0491L115.625 22.0491Q115.723 23.3491 116.461 24.0388Q117.2 24.7224 118.274 24.7224Q119.873 24.7224 120.502 23.3735L125.049 23.3735Q124.701 24.7529 123.785 25.8516Q122.876 26.9502 121.497 27.5789Q120.123 28.2014 118.426 28.2014Q116.376 28.2014 114.777 27.3286Q113.177 26.4497 112.274 24.8262Q111.377 23.2026 111.377 21.0237Q111.377 18.8508 112.262 17.2273Q113.153 15.5977 114.752 14.7249Q116.351 13.8521 118.426 13.8521Q120.453 13.8521 122.028 14.7004Q123.602 15.5488 124.487 17.1235Q125.372 18.6982 125.372 20.7979ZM121.002 19.6748Q121.002 18.5762 120.251 17.9292Q119.501 17.2761 118.378 17.2761Q117.297 17.2761 116.559 17.9048Q115.826 18.5273 115.649 19.6748L121.002 19.6748ZM126.899 19.1987Q126.899 16.5986 128.022 14.5662Q129.151 12.5276 131.159 11.3923Q133.173 10.251 135.725 10.251Q138.85 10.251 141.071 11.905Q143.299 13.553 144.05 16.3972L139.35 16.3972Q138.825 15.2986 137.861 14.7249Q136.903 14.1511 135.676 14.1511Q133.698 14.1511 132.471 15.5244Q131.251 16.8977 131.251 19.1987Q131.251 21.4998 132.471 22.8792Q133.698 24.2524 135.676 24.2524Q136.903 24.2524 137.861 23.6787Q138.825 23.0989 139.35 22.0002L144.05 22.0002Q143.299 24.8506 141.071 26.4863Q138.85 28.1221 135.725 28.1221Q133.173 28.1221 131.159 26.9868Q129.151 25.8516 128.022 23.8252Q126.899 21.7988 126.899 19.1987ZM153.023 28.2014Q150.972 28.2014 149.336 27.3286Q147.701 26.4497 146.761 24.8262Q145.827 23.2026 145.827 21.0237Q145.827 18.8752 146.773 17.2395Q147.725 15.5977 149.373 14.7249Q151.027 13.8521 153.078 13.8521Q155.123 13.8521 156.771 14.7249Q158.425 15.5977 159.371 17.2395Q160.323 18.8752 160.323 21.0237Q160.323 23.1721 159.358 24.814Q158.4 26.4497 156.734 27.3286Q155.074 28.2014 153.023 28.2014ZM153.023 24.5027Q154.25 24.5027 155.11 23.6055Q155.977 22.7021 155.977 21.0237Q155.977 19.3513 155.135 18.4541Q154.299 17.5508 153.078 17.5508Q151.827 17.5508 150.997 18.4419Q150.173 19.3269 150.173 21.0237Q150.173 22.7021 150.984 23.6055Q151.802 24.5027 153.023 24.5027ZM176.502 20.9993Q176.502 18.8508 177.314 17.2273Q178.125 15.5977 179.523 14.7249Q180.927 13.8521 182.648 13.8521Q184.125 13.8521 185.236 14.4502Q186.353 15.0483 186.951 16.0249L186.951 14.0474L191.224 14.0474L191.224 28L186.951 28L186.951 26.0225Q186.322 26.999 185.212 27.6033Q184.101 28.2014 182.624 28.2014Q180.927 28.2014 179.523 27.3164Q178.125 26.4253 177.314 24.7896Q176.502 23.1477 176.502 20.9993ZM186.951 21.0237Q186.951 19.4246 186.06 18.5029Q185.175 17.5752 183.899 17.5752Q182.624 17.5752 181.733 18.4907Q180.848 19.4001 180.848 20.9993Q180.848 22.5984 181.733 23.5383Q182.624 24.4722 183.899 24.4722Q185.175 24.4722 186.06 23.5505Q186.951 22.6228 186.951 21.0237ZM198.598 16.3728Q199.348 15.2253 200.472 14.5662Q201.601 13.9009 202.974 13.9009L202.974 18.4236L201.802 18.4236Q200.203 18.4236 199.397 19.1133Q198.598 19.803 198.598 21.5242L198.598 28L194.325 28L194.325 14.0474L198.598 14.0474L198.598 16.3728Z" fill="#FFFFFF" fill-opacity="1.000000" fill-rule="evenodd"/>
	<g filter="url(#filter_4_5_dd)">
		<path d="M36.5303 22.6948L40.3047 16.1631L34.4277 16.1631L33.5908 17.6099L29.4326 10.4194L43.6201 10.4194L46.1709 6L21 6L33.5947 27.7861L36.5322 22.6982L36.5303 22.6948Z" fill="#6B77E5" fill-opacity="1.000000" fill-rule="nonzero"/>
	</g>
	<g filter="url(#filter_4_4_dd)">
		<path d="M4 6L9.87891 6L23.4082 29.4053L20.5508 34.6299L4 6ZM12.4961 6L18.376 6L32.2002 29.915L29.2607 35L12.4961 6Z" fill="#40DDB6" fill-opacity="1.000000" fill-rule="evenodd"/>
	</g>
</svg>
