<svg width="27.953125" height="27.894531" viewBox="0 0 27.9531 27.8945" fill="none" xmlns="http://www.w3.org/2000/svg" xmlns:xlink="http://www.w3.org/1999/xlink">
	<desc>
			Created with Pixso.
	</desc>
	<defs/>
	<path d="M21.6484 18.2568C20.1299 17.4917 20.0049 17.4292 18.8105 18.3159C18.0146 18.9077 17.4854 19.4365 16.5527 19.2378C15.6211 19.0391 13.5967 17.9185 11.8232 16.1514C10.0498 14.3838 8.86426 12.3003 8.66504 11.3716C8.46582 10.4429 9.00293 9.91943 9.58887 9.12158C10.416 7.99658 10.3535 7.80908 9.64648 6.29053C9.0957 5.10889 7.59375 2.72803 6.59082 1.74072C5.5166 0.680176 5.5166 0.867676 4.8252 1.15479C4.26172 1.39209 3.7207 1.68018 3.20996 2.01562C2.20996 2.67969 1.65527 3.23193 1.26758 4.06104C0.878906 4.89062 0.705078 6.83447 2.70898 10.4756C4.71387 14.1167 6.12012 15.9785 9.03027 18.8809C11.9414 21.7832 14.1797 23.3438 17.4512 25.1787C21.499 27.4458 23.0518 27.0039 23.8838 26.6162C24.7148 26.229 25.2695 25.6787 25.9355 24.6787C26.2715 24.1689 26.5605 23.6294 26.7979 23.0664C27.0859 22.377 27.2734 22.377 26.2109 21.3042C25.2188 20.3042 22.8145 18.8447 21.6484 18.2568Z" stroke="#40DDB6" stroke-opacity="1.000000" stroke-width="2.000000"/>
</svg>
